<svg width="26" height="32" viewBox="0 0 26 32" fill="none" xmlns="http://www.w3.org/2000/svg">
<g clip-path="url(#clip0_2003_111)">
<path fill-rule="evenodd" clip-rule="evenodd" d="M1.18014e-05 12.7994C1.18014e-05 5.73079 5.82039 0 13.0005 0C20.1796 0 26 5.73079 26 12.7994C26 16.3338 24.5456 19.5324 22.1951 21.8487C21.5809 22.4534 20.7494 23.1285 19.8503 23.8598C17.3047 25.9279 14.2154 28.4381 13.9749 31.0396C13.9266 31.5674 13.5384 32 12.9995 32C12.4616 32 12.0734 31.5674 12.0251 31.0396C11.7846 28.4381 8.69532 25.9279 6.14969 23.8598C5.25158 23.1285 4.42009 22.4534 3.8059 21.8487C1.36504 19.451 -0.00463822 16.1943 1.18014e-05 12.7994ZM17.5509 12.8004C17.5876 15.2746 15.5801 17.3095 13.0672 17.3456C10.5544 17.3816 8.4876 15.4051 8.451 12.9309C8.45036 12.8874 8.45036 12.8439 8.451 12.8004C8.4876 10.3262 10.5544 8.34966 13.0672 8.3857C15.5285 8.42099 17.5151 10.377 17.5509 12.8004Z" fill="url(#paint0_linear_2003_111)"/>
<path fill-rule="evenodd" clip-rule="evenodd" d="M1.18014e-05 12.7994C1.18014e-05 5.73079 5.82039 0 13.0005 0C20.1796 0 26 5.73079 26 12.7994C26 16.3338 24.5456 19.5324 22.1951 21.8487C21.5809 22.4534 20.7494 23.1285 19.8503 23.8598C17.3047 25.9279 14.2154 28.4381 13.9749 31.0396C13.9266 31.5674 13.5384 32 12.9995 32C12.4616 32 12.0734 31.5674 12.0251 31.0396C11.7846 28.4381 8.69532 25.9279 6.14969 23.8598C5.25158 23.1285 4.42009 22.4534 3.8059 21.8487C1.36504 19.451 -0.00463822 16.1943 1.18014e-05 12.7994ZM17.5509 12.8004C17.5876 15.2746 15.5801 17.3095 13.0672 17.3456C10.5544 17.3816 8.4876 15.4051 8.451 12.9309C8.45036 12.8874 8.45036 12.8439 8.451 12.8004C8.4876 10.3262 10.5544 8.34966 13.0672 8.3857C15.5285 8.42099 17.5151 10.377 17.5509 12.8004Z" fill="#FF4433"/>
</g>
<defs>
<linearGradient id="paint0_linear_2003_111" x1="13" y1="0" x2="13" y2="32" gradientUnits="userSpaceOnUse">
<stop stop-color="#FF6122"/>
<stop offset="1" stop-color="#F22411"/>
</linearGradient>
<clipPath id="clip0_2003_111">
<rect width="26" height="32" fill="white"/>
</clipPath>
</defs>
</svg>
