<svg width="79" height="32" viewBox="0 0 79 32" fill="none" xmlns="http://www.w3.org/2000/svg">
<path d="M6.41563 6.91304C7.56501 7.1017 8.46625 7.52588 9.11875 8.18619C9.77124 8.8465 10.0975 9.66362 10.0975 10.6382C10.0975 11.82 9.71056 12.7002 8.9361 13.2788C8.16223 13.8568 6.9792 14.1464 5.38761 14.1464H0V13.5612L0.179046 13.5516C0.940294 13.5011 1.39212 13.3923 1.53331 13.2259C1.6751 13.0595 1.746 12.5512 1.746 11.7016V2.62434C1.746 1.77297 1.6751 1.26587 1.53331 1.10305C1.39212 0.940221 0.940895 0.833875 0.179647 0.784006L0 0.76478V0.180176H5.64236C6.9047 0.180176 7.86662 0.444539 8.52873 0.973267C9.19085 1.50199 9.5219 2.26985 9.5219 3.27744C9.5219 4.09576 9.26294 4.80894 8.74563 5.41638C8.22772 6.02381 7.45085 6.5225 6.41563 6.91304ZM3.69929 6.58739H4.25145C5.33174 6.58739 6.14225 6.32723 6.68239 5.80752C7.22254 5.2878 7.49291 4.51093 7.49291 3.47751C7.49291 2.50057 7.24357 1.81262 6.74608 1.41187C6.248 1.01172 5.38641 0.811644 4.16133 0.811644H3.69929V6.58739ZM3.69929 7.22006V11.7022C3.69929 12.6647 3.778 13.1869 3.93602 13.2686C4.23342 13.432 4.67623 13.5137 5.26504 13.5137C6.08998 13.5137 6.7605 13.2542 7.27601 12.735C7.79152 12.2159 8.04988 11.5412 8.04988 10.7109C8.04988 8.38386 6.59948 7.22006 3.69929 7.22006Z" fill="white"/>
<path d="M22.2328 14.1459H12.1636V13.5607L12.3426 13.5511C13.1039 13.5006 13.5557 13.3919 13.6969 13.2254C13.8387 13.059 13.909 12.5507 13.909 11.7011V2.62385C13.909 1.77248 13.8381 1.26538 13.6969 1.10256C13.5557 0.939733 13.1039 0.833387 12.3426 0.783518L12.1636 0.764892V0.179688H21.7137V2.62385H20.6659L20.6472 2.4448C20.5968 1.57661 20.5325 1.10796 20.4538 1.03887C20.3751 0.969774 19.8704 0.934926 18.9397 0.934926H15.8917V6.52141L18.4488 6.5118C19.0148 6.5118 19.3627 6.48236 19.4913 6.42227C19.6204 6.36219 19.6973 6.06538 19.7226 5.53065L19.7322 5.36061H20.4868V8.42723H19.7322L19.7226 8.259C19.6973 7.78435 19.6204 7.50256 19.4913 7.41184C19.3627 7.32111 19.0148 7.27605 18.4488 7.27605H15.8917V11.7017C15.8917 12.4317 15.9776 12.886 16.1513 13.0656C16.3243 13.2447 16.7725 13.3348 17.4959 13.3348H18.9872C20.0945 13.3348 20.7248 13.2795 20.8792 13.1696C21.033 13.0596 21.1321 12.5892 21.1766 11.7588L21.1862 11.5888H22.234V14.1459H22.2328Z" fill="white"/>
<path d="M26.6185 9.84274L25.8116 11.6987C25.501 12.4305 25.3466 12.919 25.3466 13.1641C25.3466 13.4285 25.7521 13.5607 26.5638 13.5607H26.7147V14.1459H23.0911V13.5607L23.2893 13.551C23.8307 13.5258 24.1527 13.4579 24.2567 13.348C24.36 13.238 24.6232 12.6889 25.0444 11.7011L29.9717 0H30.6296L35.5288 11.7678C35.9127 12.6107 36.1831 13.1124 36.3405 13.2729C36.4979 13.4333 36.8061 13.5258 37.2652 13.551L37.4821 13.5607V14.1459H32.3011V13.5607H32.4712C33.352 13.5607 33.7924 13.4345 33.7924 13.1833C33.7924 12.812 33.6602 12.3181 33.3958 11.7011L32.6142 9.84274H26.6185ZM26.9219 9.07849H32.2717L29.616 2.71814L26.9219 9.07849Z" fill="white"/>
<path d="M38.01 0.764291V0.179688H43.5118V0.764892L43.3417 0.783518C42.5679 0.833987 42.1119 0.938531 41.9737 1.09775C41.8355 1.25757 41.7658 1.76587 41.7658 2.62325V8.59666C41.7658 10.041 41.8036 10.9831 41.8787 11.423C41.9544 11.8628 42.1431 12.2803 42.4447 12.6757C43.0551 13.467 43.9672 13.8629 45.1815 13.8629C46.32 13.8629 47.2321 13.5174 47.9182 12.8271C48.3016 12.4377 48.5521 12.0076 48.6687 11.5365C48.7846 11.0655 48.8429 10.2243 48.8429 9.01244V2.62385C48.8429 1.77248 48.772 1.26538 48.6302 1.10256C48.489 0.939733 48.0342 0.833387 47.2663 0.783518L47.0963 0.764892V0.179688H51.5695V0.764892L51.3904 0.783518C50.6166 0.833987 50.1623 0.938531 50.0265 1.09775C49.8908 1.25757 49.8235 1.76587 49.8235 2.62325V8.4741C49.8235 9.77008 49.7508 10.72 49.6066 11.3238C49.4618 11.9276 49.1728 12.4906 48.7384 13.0127C47.9206 14.0005 46.6559 14.4944 44.9447 14.4944C41.4846 14.4944 39.7542 12.6354 39.7542 8.9175V2.62385C39.7542 1.77248 39.6833 1.26538 39.5421 1.10256C39.4003 0.939733 38.9491 0.833387 38.1879 0.783518L38.01 0.764291Z" fill="white"/>
<path d="M57.5441 0.934325H55.3169C54.7947 0.934325 54.3387 0.962564 53.9488 1.01904C53.6904 1.05689 53.5618 1.29001 53.5618 1.7178C53.5618 2.03864 53.5558 2.31563 53.5432 2.54814L53.5336 2.7368H52.5422V0.179688H64.5269V2.7368H63.5362L63.5266 2.54814C63.5079 2.31563 63.4983 2.03864 63.4983 1.7178C63.4983 1.29001 63.3721 1.05689 63.121 1.01904C62.7244 0.962564 62.2696 0.934325 61.7553 0.934325H59.5256V11.7017C59.5256 12.5387 59.6013 13.0464 59.7522 13.226C59.903 13.4051 60.353 13.5138 61.1016 13.5517L61.5072 13.5613V14.1465H55.5716V13.5607L55.9772 13.5511C56.7258 13.5132 57.174 13.4045 57.3218 13.2254C57.4696 13.0464 57.5435 12.5381 57.5435 11.7011V0.934325H57.5441Z" fill="white"/>
<path d="M70.8026 7.95558L67.6128 2.68033C66.9393 1.573 66.5656 0.985996 66.4899 0.919305C66.4148 0.852613 66.0903 0.807551 65.5178 0.782917L65.3291 0.764892V0.179688H70.745V0.764892H70.5563C69.6629 0.764892 69.2098 0.867033 69.1972 1.07131C69.1846 1.25096 69.443 1.7869 69.9717 2.67973L72.5889 7.08258L75.3191 2.69294C75.8598 1.82115 76.1308 1.28521 76.1308 1.08453C76.1308 0.871239 75.6934 0.764291 74.8186 0.764291H74.6485V0.179688H78.4271V0.764892L78.2481 0.782917C77.6376 0.819568 77.2838 0.879049 77.1864 0.961963C77.0891 1.04428 76.707 1.61746 76.04 2.68033L72.7848 7.95558V11.7017C72.7848 12.5573 72.8521 13.0656 72.9872 13.226C73.1224 13.3865 73.5773 13.4952 74.3511 13.5517L74.5302 13.5613V14.1465H69.0572V13.5607L69.2273 13.5511C70.0071 13.4946 70.465 13.3858 70.6002 13.2254C70.7353 13.065 70.8032 12.5567 70.8032 11.7011V7.95558H70.8026Z" fill="white"/>
<path d="M9.883 31.6577H0V31.0845L0.176042 31.0755C0.921668 31.0263 1.36388 30.9199 1.50267 30.7565C1.64086 30.5931 1.71055 30.0956 1.71055 29.2634V20.37C1.71055 19.536 1.64086 19.0392 1.50267 18.8799C1.36388 18.7207 0.921668 18.6162 0.176042 18.5669L0 18.5483V17.9751H5.36238V18.5483L5.18694 18.5663C4.4353 18.6156 3.99069 18.7195 3.8555 18.8793C3.71972 19.0386 3.65243 19.5354 3.65243 20.3694V29.2628C3.65243 30.083 3.71491 30.554 3.83988 30.6778C3.96486 30.8009 4.43831 30.8622 5.26144 30.8622H6.67458C7.79092 30.8622 8.4302 30.7991 8.59302 30.673C8.75525 30.5468 8.85859 30.0241 8.90365 29.106L8.91326 28.921H9.8836V31.6577H9.883Z" fill="white"/>
<path d="M17.8462 31.9999C15.8605 31.9999 14.2954 31.3588 13.1514 30.0766C12.0068 28.7945 11.4348 27.0413 11.4348 24.8164C11.4348 22.5915 12.0068 20.8377 13.1514 19.5556C14.296 18.2734 15.8605 17.6323 17.8462 17.6323C19.832 17.6323 21.3971 18.2734 22.5411 19.5556C23.6857 20.8377 24.2577 22.5915 24.2577 24.8164C24.2577 27.0413 23.6857 28.7951 22.5411 30.0766C21.3971 31.3588 19.832 31.9999 17.8462 31.9999ZM17.8462 31.3804C19.2089 31.3804 20.2766 30.8006 21.048 29.641C21.8195 28.4814 22.2052 26.8748 22.2052 24.8206C22.2052 22.767 21.8195 21.1586 21.048 19.996C20.2766 18.8334 19.2089 18.2518 17.8462 18.2518C16.483 18.2518 15.4159 18.8334 14.6444 19.996C13.873 21.1586 13.4872 22.767 13.4872 24.8206C13.4872 26.8748 13.873 28.4814 14.6444 29.641C15.4159 30.8006 16.483 31.3804 17.8462 31.3804Z" fill="white"/>
<path d="M25.6516 18.5478V17.9746H31.041V18.5478L30.8746 18.5658C30.1164 18.6151 29.6693 18.7178 29.5342 18.874C29.3984 19.0303 29.3311 19.5289 29.3311 20.3689V26.2209C29.3311 27.6359 29.3683 28.5588 29.4416 28.9896C29.5161 29.4204 29.7006 29.8289 29.9962 30.217C30.594 30.9921 31.488 31.3796 32.6777 31.3796C33.7928 31.3796 34.6868 31.0414 35.3586 30.3649C35.7347 29.9833 35.9792 29.5621 36.0934 29.1007C36.2075 28.6393 36.264 27.8149 36.264 26.6277V20.3695C36.264 19.5356 36.1949 19.0387 36.0561 18.8795C35.9179 18.7202 35.4721 18.6157 34.7205 18.5664L34.5541 18.5484V17.9752H38.9359V18.5484L38.7604 18.5664C38.0022 18.6157 37.5564 18.7184 37.4248 18.8746C37.2914 19.0309 37.2259 19.5295 37.2259 20.3695V26.1014C37.2259 27.3709 37.155 28.3016 37.0132 28.8934C36.872 29.4852 36.5885 30.0368 36.1631 30.5481C35.3616 31.516 34.1227 31.9997 32.4464 31.9997C29.0565 31.9997 27.3622 30.1786 27.3622 26.5358V20.3695C27.3622 19.5356 27.2925 19.0387 27.1543 18.8795C27.0155 18.7202 26.5733 18.6157 25.8271 18.5664L25.6516 18.5478Z" fill="white"/>
<path d="M50.6778 31.8422L42.4116 20.3784V29.2628C42.4116 30.1016 42.4795 30.5991 42.6147 30.7559C42.7505 30.9133 43.1975 31.0196 43.9558 31.0749L44.1222 31.0839V31.6571H39.8413V31.0839L40.0083 31.0749C40.766 31.0196 41.2136 30.9133 41.3488 30.7559C41.4846 30.5991 41.5519 30.101 41.5519 29.2628V20.3694C41.5519 19.5294 41.4846 19.0308 41.35 18.8745C41.2148 18.7183 40.7702 18.6156 40.0167 18.5663L39.8419 18.5483V17.9751H42.9392L50.5294 28.5977V20.3694C50.5294 19.5354 50.4603 19.0386 50.3215 18.8793C50.1833 18.7201 49.7375 18.6156 48.9859 18.5663L48.8195 18.5483V17.9751H53.0811V18.5483L52.9057 18.5663C52.1535 18.6156 51.7094 18.7195 51.5743 18.8793C51.4385 19.0386 51.3712 19.5354 51.3712 20.3694V31.8428H50.6778V31.8422Z" fill="white"/>
<path d="M66.0404 31.3246C64.2842 31.7746 62.8014 31.9993 61.5937 31.9993C59.5653 31.9993 57.9509 31.3474 56.7493 30.0442C55.5476 28.7404 54.9468 26.989 54.9468 24.7882C54.9468 22.514 55.532 20.753 56.7018 19.5045C57.8722 18.2566 59.5197 17.6323 61.6442 17.6323C62.4012 17.6323 63.1439 17.6912 63.8703 17.8078C64.5967 17.9249 65.308 18.1004 66.0038 18.3347V20.8215H64.9782L64.9656 20.6371C64.9493 20.4706 64.9409 20.2952 64.9409 20.1101C64.9409 19.5309 64.6573 19.0761 64.0914 18.7463C63.5254 18.4164 62.7365 18.2518 61.7271 18.2518C60.213 18.2518 59.0462 18.8268 58.2273 19.9761C57.409 21.1255 56.9992 22.7604 56.9992 24.8807C56.9992 26.8652 57.457 28.419 58.3721 29.5401C59.2871 30.6618 60.5549 31.2224 62.1765 31.2224C62.6758 31.2224 63.3169 31.1209 64.0992 30.9172V28.2267C64.0992 27.3867 64.0313 26.8881 63.8961 26.7318C63.7603 26.5756 63.3133 26.4699 62.5556 26.414L62.3886 26.405V25.8318H67.751V26.405L67.584 26.414C66.8263 26.4693 66.3787 26.575 66.2435 26.7318C66.1077 26.8881 66.0404 27.3861 66.0404 28.2267V31.3246V31.3246Z" fill="white"/>
<path d="M78.4278 31.6571H68.5635V31.0839L68.7389 31.0749C69.4845 31.0257 69.9268 30.9193 70.0655 30.7559C70.2043 30.5925 70.2734 30.095 70.2734 29.2628V20.3694C70.2734 19.5354 70.2043 19.0386 70.0655 18.8793C69.9274 18.7201 69.4845 18.6156 68.7389 18.5663L68.5635 18.5483V17.9751H77.9195V20.37H76.8939L76.8753 20.194C76.826 19.3432 76.763 18.8841 76.686 18.8169C76.6091 18.749 76.1141 18.7147 75.202 18.7147H72.2159V24.1882L74.7213 24.1786C75.2765 24.1786 75.6172 24.1492 75.7434 24.0909C75.8695 24.0326 75.9452 23.7412 75.9705 23.2173L75.9795 23.0509H76.7191V26.0556H75.9795L75.9705 25.8904C75.9458 25.4259 75.8695 25.1496 75.7434 25.0606C75.6172 24.9717 75.2765 24.9273 74.7213 24.9273H72.2159V29.2628C72.2159 29.9784 72.3006 30.423 72.4706 30.5991C72.6395 30.7745 73.0793 30.8622 73.7883 30.8622H75.2489C76.3334 30.8622 76.951 30.8082 77.1024 30.7006C77.2532 30.5931 77.3506 30.1322 77.3932 29.3187L77.4028 29.1523H78.4284V31.6571H78.4278Z" fill="white"/>
</svg>
